<svg xmlns="http://www.w3.org/2000/svg" width="20.06" height="18" viewBox="0 0 20.06 18">
  <g id="레이어_2" data-name="레이어 2">
    <g id="레이어_1-2" data-name="레이어 1">
      <path d="M18.77,0a1.18,1.18,0,0,1,.56,0,1.12,1.12,0,0,1,.47.3A1.09,1.09,0,0,1,20,.85,1,1,0,0,1,20,1.4L13.82,17.34a1,1,0,0,1-.29.41,1.07,1.07,0,0,1-.45.23,1.06,1.06,0,0,1-.5,0,.94.94,0,0,1-.43-.25L8.67,14.39,7.43,15.62a1,1,0,0,1-1.77-.73V11.51L.32,6.4A1,1,0,0,1,0,5.4a1,1,0,0,1,.74-.74ZM16.6,4.46l-8.23,6.8,4.08,3.9ZM15,3.13,3.08,6.19,6.87,9.82,15,3.13Z" fill="#3791ff"/>
    </g>
  </g>
</svg>
