<svg xmlns="http://www.w3.org/2000/svg" width="22.22" height="22.22" viewBox="0 0 22.22 22.22">
  <g id="레이어_2" data-name="레이어 2">
    <g id="레이어_1-2" data-name="레이어 1">
      <g>
        <path d="M13.73,3.88c1-1.6,1.51-2.4,2.18-2.64a2,2,0,0,1,1.41,0c.66.24,1.16,1,2.17,2.64,1.14,1.8,1.71,2.7,1.61,3.44a2.1,2.1,0,0,1-.72,1.31c-.57.48-1.64.48-3.77.48s-3.19,0-3.77-.48a2.1,2.1,0,0,1-.72-1.31C12,6.58,12.59,5.68,13.73,3.88ZM1.11,5.11c0-1.67,0-2.5.43-3.08A1.9,1.9,0,0,1,2,1.54c.58-.43,1.41-.43,3.08-.43s2.5,0,3.08.43a2.11,2.11,0,0,1,.5.49c.42.58.42,1.41.42,3.08s0,2.5-.42,3.09a2.58,2.58,0,0,1-.5.49c-.58.42-1.41.42-3.08.42s-2.5,0-3.08-.42a2.28,2.28,0,0,1-.49-.49C1.11,7.61,1.11,6.78,1.11,5.11Z" fill="none" stroke="#919191" stroke-linecap="round" stroke-linejoin="round" stroke-width="2.22"/>
        <path d="M16.61,21.11a4,4,0,1,0-4-4A4,4,0,0,0,16.61,21.11Z" fill="none" stroke="#919191" stroke-linecap="round" stroke-linejoin="round" stroke-width="2.22"/>
        <path d="M8.61,13.61l-7,7m0-7,7,7" fill="none" stroke="#919191" stroke-linecap="round" stroke-linejoin="round" stroke-width="2.22"/>
      </g>
    </g>
  </g>
</svg>
